<svg width="76" height="63" viewBox="0 0 76 63" fill="none" xmlns="http://www.w3.org/2000/svg">
<path d="M35.5168 18.5335C38.2314 18.5409 40.836 17.4619 42.7505 15.5373C44.1761 14.1046 46.1155 13.3015 48.1366 13.3068H75.1C75.4866 13.3068 75.8 12.9934 75.8 12.6068V6.16684C75.8 5.78025 75.4866 5.46684 75.1 5.46684H48.1366C46.1155 5.47223 44.1761 4.66913 42.7505 3.23637C40.836 1.31181 38.2314 0.232992 35.5168 0.240178H11.1667C10.7801 0.240178 10.4667 0.553579 10.4667 0.940179V2.15351C10.4667 2.54011 10.7801 2.85351 11.1667 2.85351H28.06C28.4466 2.85351 28.76 3.16691 28.76 3.55351V4.76684C28.76 5.15344 28.4466 5.46684 28.06 5.46684H11.1667C10.7801 5.46684 10.4667 5.78025 10.4667 6.16684V7.38018C10.4667 7.76678 10.7801 8.08018 11.1667 8.08018H12.38C12.7666 8.08018 13.08 8.39358 13.08 8.78018V9.99351C13.08 10.3801 12.7666 10.6935 12.38 10.6935H11.1667C10.7801 10.6935 10.4667 11.0069 10.4667 11.3935V12.6068C10.4667 12.9934 10.7801 13.3068 11.1667 13.3068H12.38C12.7666 13.3068 13.08 13.6202 13.08 14.0068V15.2202C13.08 15.6068 12.7666 15.9202 12.38 15.9202H11.1667C10.7801 15.9202 10.4667 16.2336 10.4667 16.6202V17.8335C10.4667 18.2201 10.7801 18.5335 11.1667 18.5335H12.38C12.7666 18.5335 13.08 18.8469 13.08 19.2335V46.5802C13.08 46.9668 12.7666 47.2802 12.38 47.2802H0.900001C0.513401 47.2802 0.200001 47.5936 0.200001 47.9802V48.5868C0.208657 56.5214 6.63876 62.9515 14.5733 62.9602H61.4267C69.3612 62.9515 75.7913 56.5214 75.8 48.5868V47.9802C75.8 47.5936 75.4866 47.2802 75.1 47.2802H73.9516C73.4642 47.2802 73.1234 46.788 73.1695 46.3028C73.1799 46.1935 73.1856 46.0836 73.1867 45.9735C73.1803 44.4758 72.3251 43.1384 71.0252 42.4865C70.6491 42.2978 70.4318 41.8598 70.5091 41.4461C70.8429 39.6605 69.8893 37.8267 68.1411 37.1151C67.6688 36.9229 67.1633 36.8249 66.6533 36.8268H64.805C64.3175 36.8268 63.9767 36.3347 64.0228 35.8494C64.0332 35.7401 64.0389 35.6303 64.04 35.5202C64.04 33.3552 62.285 31.6002 60.12 31.6002H56.8337C54.4063 31.5933 52.077 32.5583 50.3657 34.2801L48.0241 36.6218C47.8928 36.7531 47.7147 36.8268 47.5291 36.8268H40.52C38.363 36.8185 36.6077 38.5603 36.5992 40.7173C36.5982 40.9622 36.6203 41.2062 36.6649 41.4459C36.7417 41.8597 36.5242 42.2979 36.148 42.4866C34.8482 43.1386 33.993 44.4758 33.9867 45.9735C33.9877 46.0836 33.9935 46.1935 34.0038 46.3028C34.0499 46.788 33.7091 47.2802 33.2217 47.2802H32.0733C31.6867 47.2802 31.3733 46.9668 31.3733 46.5802V19.2335C31.3733 18.8469 31.6867 18.5335 32.0733 18.5335H35.5168ZM31.3733 3.55351C31.3733 3.16691 31.6867 2.85351 32.0733 2.85351H35.5168C37.5379 2.84812 39.4773 3.65123 40.9029 5.08399C42.8173 7.00855 45.422 8.08753 48.1366 8.08018H72.4867C72.8733 8.08018 73.1867 8.39358 73.1867 8.78018V9.99351C73.1867 10.3801 72.8733 10.6935 72.4867 10.6935H48.1366C45.422 10.6862 42.8173 11.7651 40.9029 13.6897C39.4773 15.1225 37.5379 15.9256 35.5168 15.9202H32.0733C31.6867 15.9202 31.3733 15.6068 31.3733 15.2202V3.55351ZM26.1467 8.78018C26.1467 8.39358 26.4601 8.08018 26.8467 8.08018H28.06C28.4466 8.08018 28.76 8.39358 28.76 8.78018V46.5802C28.76 46.9668 28.4466 47.2802 28.06 47.2802H26.8467C26.4601 47.2802 26.1467 46.9668 26.1467 46.5802V8.78018ZM20.92 8.78018C20.92 8.39358 21.2334 8.08018 21.62 8.08018H22.8333C23.2199 8.08018 23.5333 8.39358 23.5333 8.78018V46.5802C23.5333 46.9668 23.2199 47.2802 22.8333 47.2802H21.62C21.2334 47.2802 20.92 46.9668 20.92 46.5802V8.78018ZM15.6933 8.78018C15.6933 8.39358 16.0067 8.08018 16.3933 8.08018H17.6067C17.9933 8.08018 18.3067 8.39358 18.3067 8.78018V46.5802C18.3067 46.9668 17.9933 47.2802 17.6067 47.2802H16.3933C16.0067 47.2802 15.6933 46.9668 15.6933 46.5802V8.78018ZM69.2667 44.6668C69.9883 44.6668 70.5733 45.2519 70.5733 45.9735C70.5733 46.6951 69.9883 47.2802 69.2667 47.2802H51.6733C51.2867 47.2802 50.9733 46.9668 50.9733 46.5802V45.7488C50.9746 45.4025 51.1122 45.0706 51.3562 44.8249C51.4574 44.7237 51.5947 44.6668 51.7379 44.6668H69.2667ZM66.6533 39.4402C67.3749 39.4402 67.96 40.0252 67.96 40.7468C67.96 41.4684 67.3749 42.0535 66.6533 42.0535H55.8176C55.1939 42.0535 54.8816 41.2995 55.3226 40.8585L56.3581 39.823C56.6034 39.5777 56.9363 39.4398 57.2832 39.4402H66.6533ZM45.7467 45.3006C45.7499 44.755 45.8215 44.212 45.9597 43.6842C46.2474 42.551 46.8341 41.516 47.6583 40.6867L51.5156 36.8268L52.2147 36.1278C53.4367 34.8982 55.1001 34.2088 56.8337 34.2135H60.12C60.8416 34.2135 61.4267 34.7986 61.4267 35.5202C61.4267 36.2418 60.8416 36.8268 60.12 36.8268H57.2832C56.2426 36.8241 55.2443 37.2376 54.5105 37.9754L50.0495 42.4364L49.5086 42.9773C48.771 43.7107 48.3574 44.7087 48.36 45.7488V53.8135C48.36 54.5351 47.7749 55.1202 47.0533 55.1202C46.3317 55.1202 45.7467 54.5351 45.7467 53.8135V45.3006ZM40.5174 39.4349C40.5188 39.4349 40.52 39.4361 40.52 39.4376C40.52 39.439 40.5212 39.4402 40.5226 39.4402H45.0871C45.1545 39.4402 45.2028 39.528 45.16 39.58C44.9271 39.8714 44.7123 40.1768 44.5171 40.4947C44.4714 40.5704 44.4165 40.6384 44.3721 40.7155C44.1422 41.1171 43.943 41.5356 43.7762 41.9673C43.7571 42.0175 43.7026 42.0483 43.6488 42.0483H40.52C39.7984 42.0483 39.2133 41.4632 39.2133 40.7416C39.2133 40.0209 39.797 39.4364 40.5174 39.4349ZM37.9067 44.6668H42.5225C42.8651 44.6668 43.1333 44.9581 43.1333 45.3006V46.5802C43.1333 46.9668 42.8199 47.2802 42.4333 47.2802H37.9067C37.1851 47.2802 36.6 46.6951 36.6 45.9735C36.6 45.2519 37.1851 44.6668 37.9067 44.6668ZM37.9067 49.8935H42.4333C42.8199 49.8935 43.1333 50.2069 43.1333 50.5935V53.8135C43.1333 55.9785 44.8884 57.7335 47.0533 57.7335C49.2183 57.7335 50.9733 55.9785 50.9733 53.8135V50.5935C50.9733 50.2069 51.2867 49.8935 51.6733 49.8935H72.3312C72.7489 49.8935 73.0753 50.2582 73.0011 50.6694C71.9979 56.229 67.1501 60.34 61.4267 60.3468H14.5733C8.84985 60.34 4.0021 56.229 2.99891 50.6694C2.92473 50.2582 3.25109 49.8935 3.66885 49.8935H37.9067Z" fill="#CE3246"/>
</svg>
