<svg width="80" height="79" viewBox="0 0 80 79" fill="none" xmlns="http://www.w3.org/2000/svg">
<g clip-path="url(#clip0_71_2015)">
<path d="M13.8283 71.1394L77.2572 42.651C78.4543 42.1135 79.1986 40.9761 79.2 39.6825C79.2 39.6813 79.2 39.6801 79.2 39.679C79.2 38.3871 78.4583 37.2498 77.2636 36.7102L13.8315 8.06194C13.2174 7.78463 12.4937 7.94832 12.0587 8.46313C11.9427 8.60033 9.18696 11.8873 6.41341 17.3759C3.8527 22.4436 0.80001 30.4273 0.800009 39.6837C0.800009 48.9423 3.85377 56.8818 6.4154 61.9121C9.19063 67.3613 11.9487 70.6086 12.0649 70.7443C12.5001 71.2528 13.218 71.4136 13.8283 71.1394ZM22.8832 15.4594C22.0756 16.9187 21.3291 18.417 20.6562 19.9309C20.5676 20.13 20.5257 20.3379 20.5257 20.5428C20.5257 21.1206 20.8598 21.672 21.4218 21.9217C22.1828 22.2601 23.0741 21.9173 23.4124 21.1561C24.0831 19.6474 24.8316 18.1558 25.6428 16.7057L76.0222 39.4591C76.0916 39.4905 76.1838 39.5471 76.1838 39.679C76.1838 39.679 76.1838 39.6791 76.1838 39.6793C76.1836 39.8113 76.0911 39.8681 76.0216 39.8993L20.8057 64.6988C17.6694 59.7108 13.1616 50.6358 13.1616 39.6834C13.1616 28.7194 17.6774 19.5667 20.8186 14.5267L22.8832 15.4594ZM3.81657 39.6837C3.81657 31.0561 6.67142 23.573 9.06629 18.8148C10.8771 15.2168 12.7071 12.5866 13.6703 11.2988L18.046 13.2751C14.7305 18.6842 10.1452 28.2367 10.1452 39.6837C10.1452 51.1123 14.716 60.5843 18.0284 65.9465L13.666 67.9057C11.3214 64.8 3.81656 53.7574 3.81657 39.6837Z" fill="#CE3246"/>
<path d="M21.8762 25.018L21.8975 24.9581C22.1738 24.1726 21.762 23.3115 20.9765 23.0343C20.191 22.7573 19.3296 23.1695 19.0525 23.9552L19.0304 24.0184C18.9723 24.1838 18.9448 24.3524 18.9448 24.5182C18.9448 25.1405 19.3332 25.7233 19.9535 25.9412C20.7395 26.2171 21.6003 25.8039 21.8762 25.018Z" fill="#CE3246"/>
<path d="M35.4881 29.0427C35.4881 25.7162 32.7818 23.0101 29.4555 23.0101C26.129 23.0101 23.4228 25.7162 23.4228 29.0427C23.4228 32.3692 26.1291 35.0754 29.4555 35.0754C32.782 35.0754 35.4881 32.3691 35.4881 29.0427ZM26.4391 29.0427C26.4391 27.3795 27.7922 26.0263 29.4555 26.0263C31.1187 26.0263 32.4719 27.3795 32.4719 29.0427C32.4719 30.706 31.1187 32.0591 29.4555 32.0591C27.7922 32.059 26.4391 30.706 26.4391 29.0427Z" fill="#CE3246"/>
<path d="M50.5699 44.8786C50.5699 41.5521 47.8636 38.8459 44.5372 38.8459C41.2108 38.8459 38.5046 41.5523 38.5046 44.8786C38.5046 48.2049 41.2109 50.9112 44.5372 50.9112C47.8636 50.9112 50.5699 48.2049 50.5699 44.8786ZM41.521 44.8786C41.521 43.2153 42.8742 41.8622 44.5374 41.8622C46.2006 41.8622 47.5538 43.2152 47.5538 44.8786C47.5538 46.5418 46.2006 47.895 44.5374 47.895C42.8742 47.895 41.521 46.5418 41.521 44.8786Z" fill="#CE3246"/>
<path d="M30.2096 48.649C30.2096 46.1542 28.1799 44.1245 25.6851 44.1245C23.1902 44.1245 21.1605 46.1542 21.1605 48.649C21.1605 51.1439 23.1902 53.1736 25.6851 53.1736C28.1799 53.1736 30.2096 51.1439 30.2096 48.649ZM24.1768 48.649C24.1768 47.8174 24.8533 47.1409 25.6849 47.1409C26.5165 47.1409 27.193 47.8174 27.193 48.649C27.193 49.4806 26.5165 50.1571 25.6849 50.1571C24.8533 50.1571 24.1768 49.4805 24.1768 48.649Z" fill="#CE3246"/>
<path d="M62.6912 40.6944C63.2546 40.0805 63.2126 39.1264 62.5986 38.5637L61.6936 37.7342C61.0797 37.1713 60.1258 37.2128 59.5629 37.8268C59.2974 38.1162 59.1664 38.4814 59.1664 38.8454C59.1664 39.2535 59.3312 39.6602 59.6555 39.9576L60.5605 40.787C61.1744 41.3498 62.1285 41.3083 62.6912 40.6944Z" fill="#CE3246"/>
<path d="M53.7299 37.348L55.238 34.7841C55.6602 34.0661 55.4208 33.1418 54.7028 32.7195C53.9848 32.2972 53.0606 32.5368 52.6382 33.2547L51.1301 35.8186C50.9888 36.0589 50.9215 36.3221 50.9215 36.5819C50.9215 37.0987 51.1875 37.6022 51.6654 37.8832C52.3833 38.3055 53.3077 38.0659 53.7299 37.348Z" fill="#CE3246"/>
<path d="M44.3773 35.4057C45.1429 35.0777 45.4977 34.1909 45.1694 33.4255L43.3596 29.2026C43.0315 28.437 42.1447 28.0824 41.3793 28.4105C40.8074 28.6557 40.4647 29.2124 40.4647 29.7973C40.4647 29.9955 40.504 30.197 40.5872 30.3907L42.3969 34.6136C42.7251 35.3793 43.6118 35.7338 44.3773 35.4057Z" fill="#CE3246"/>
<path d="M34.3726 43.3871L36.9365 39.8429C37.4246 39.1679 37.2733 38.225 36.5986 37.737C35.9236 37.2488 34.9808 37.4001 34.4925 38.0749L31.9286 41.6192C31.7353 41.8862 31.6424 42.1954 31.6424 42.5021C31.6424 42.9694 31.859 43.4301 32.2668 43.7252C32.9413 44.2131 33.8843 44.0619 34.3726 43.3871Z" fill="#CE3246"/>
<path d="M36.5843 55.9862C37.3046 55.5684 37.5501 54.6456 37.1322 53.9249L34.9454 50.1545C34.5274 49.4341 33.6045 49.1887 32.8839 49.6066C32.4016 49.8864 32.1322 50.3925 32.1322 50.9126C32.1322 51.1693 32.1979 51.4297 32.3362 51.668L34.5231 55.4384C34.9408 56.1588 35.8639 56.404 36.5843 55.9862Z" fill="#CE3246"/>
<path d="M24.3322 41.4264C24.9247 40.841 24.9299 39.8861 24.3445 39.2937L19.9708 34.8696C19.3851 34.2773 18.4302 34.2719 17.8379 34.8573C17.5394 35.1524 17.39 35.541 17.39 35.93C17.39 36.3131 17.5351 36.6962 17.8258 36.9902L22.1995 41.4141C22.785 42.0066 23.7399 42.0119 24.3322 41.4264Z" fill="#CE3246"/>
</g>
<defs>
<clipPath id="clip0_71_2015">
<rect width="78.4" height="78.4" fill="white" transform="translate(79.2 0.399994) rotate(90)"/>
</clipPath>
</defs>
</svg>
