<svg width="80" height="71" viewBox="0 0 80 71" fill="none" xmlns="http://www.w3.org/2000/svg">
<path fill-rule="evenodd" clip-rule="evenodd" d="M29.9634 0.775916C29.5889 1.15031 29.5875 1.16332 29.5875 4.27099V7.3903L29.9826 7.76163L30.3776 8.13281L39.3112 8.17461L48.2447 8.21657L48.6359 9.24648C48.8512 9.81305 49.5046 11.5513 50.088 13.1094L51.1487 15.9422L45.9437 16.0187L40.7388 16.0953L40.3693 16.525L40 16.9546V21.1671C40 26.3195 40.032 26.417 41.7274 26.4263C42.2973 26.4296 42.6345 26.4994 42.6737 26.6227C42.7074 26.728 43.2965 36.4923 43.9829 48.3215C45.2663 70.4342 45.2719 70.5005 45.9022 70.7424C46.2261 70.8667 72.9739 70.8667 73.2978 70.7424C73.928 70.5005 73.9337 70.4342 75.2171 48.3215C75.9035 36.4923 76.4926 26.728 76.5263 26.6227C76.5655 26.4994 76.9027 26.4296 77.4726 26.4263C79.1689 26.417 79.2 26.3219 79.2 21.1467V16.9139L78.7524 16.4663L78.3048 16.0187L69.3735 16.0152L60.4422 16.0115L57.9239 9.9285C54.5115 1.68563 54.1288 0.812819 53.8289 0.5914C53.6267 0.442256 51.0062 0.399994 41.9543 0.399994H30.3392L29.9634 0.775916ZM52.2955 3.19453C52.3386 3.29988 53.5234 6.14218 54.9283 9.51093C56.3332 12.8797 57.5186 15.7221 57.5624 15.8273C57.6236 15.9742 57.2154 16.0187 55.8065 16.0187H53.9708L52.1541 11.157C51.0717 8.26021 50.2007 6.15612 49.9991 5.95078L49.6608 5.60624H40.9256H32.1906V4.30468V3.00312H42.2039C50.0707 3.00312 52.2341 3.04416 52.2955 3.19453ZM76.5969 21.225V23.8281H59.6H42.6031V21.225V18.6219H59.6H76.5969V21.225ZM73.8421 26.9289C73.8446 27.7662 73.3719 35.9688 73.2906 36.4992L73.2142 36.9969H59.6H45.9858L45.9094 36.4992C45.8281 35.9688 45.3554 27.7662 45.3578 26.9289L45.3594 26.4312H59.6H73.8406L73.8421 26.9289ZM12.7437 37.0989C10.2921 37.4844 7.48987 38.7249 5.75619 40.1917C3.25489 42.3082 1.44709 45.6887 0.965669 49.1495C0.625885 51.5929 0.873947 52.8242 1.93771 53.9743C2.56628 54.654 2.58481 54.7015 2.39233 55.1422C2.13508 55.7317 2.13401 57.3049 2.39034 57.8984C2.58037 58.3381 2.56031 58.3898 1.92561 59.1C0.928766 60.2155 0.799988 60.8325 0.799988 64.4914C0.799988 67.8998 0.89661 68.4213 1.72012 69.4612C1.97568 69.7838 2.54133 70.2255 2.97712 70.4426L3.76954 70.8375H21.7016H39.6336L40.4295 70.4409C41.3806 69.967 42.0539 69.1968 42.3828 68.2062C42.5805 67.6108 42.6154 66.8608 42.5754 64.0669C42.5209 60.2579 42.4586 60.0004 41.3294 58.9161C40.8071 58.4143 40.7996 58.3904 41.0098 57.8874C41.2862 57.2259 41.2862 55.8147 41.0098 55.1532C40.7996 54.6502 40.8071 54.6263 41.3294 54.1245C42.3474 53.1471 42.529 52.6069 42.5068 50.625C42.4448 45.1254 39.0883 39.8727 34.3847 37.9146C32.2154 37.0114 32.0646 37.0004 22.1609 37.0205C17.192 37.0304 12.9543 37.0656 12.7437 37.0989ZM32.7014 40.0202C34.2377 40.6013 35.2888 41.2936 36.4914 42.5163C38.4058 44.4629 39.6766 47.363 39.9245 50.3512L40.0352 51.6852L39.57 52.1504L39.1048 52.6156H21.7016H4.29828L3.83324 52.1506C3.37264 51.69 3.36927 51.6742 3.47202 50.5045C3.63158 48.6883 3.97105 47.4786 4.81125 45.7337C5.48102 44.3426 5.75312 43.9636 6.90386 42.8199C8.59237 41.1418 10.2988 40.2264 12.6021 39.7631C12.9748 39.6882 17.4485 39.6393 22.5437 39.6545C31.6919 39.6819 31.819 39.6865 32.7014 40.0202ZM51.8745 40.3898C49.6842 42.826 48.7258 46.3644 49.3983 49.5326C49.7155 51.0265 50.6504 52.9112 51.7062 54.1852L52.563 55.2187H49.8102H47.0577L46.9811 54.7211C46.9067 54.2377 46.1158 40.6348 46.1219 39.9445L46.125 39.6H49.3549H52.5846L51.8745 40.3898ZM61.6329 39.8272C64.2415 40.5066 66.4701 42.7959 67.1814 45.5264C68.0785 48.9711 66.3318 52.7297 63.0889 54.3321C60.6878 55.5186 58.5122 55.5186 56.111 54.3321C52.9283 52.7596 51.2184 49.1986 51.963 45.6942C52.5226 43.0611 54.9125 40.5322 57.5005 39.835C58.5607 39.5495 60.5521 39.5456 61.6329 39.8272ZM73.078 39.9445C73.0842 40.6348 72.2933 54.2377 72.2189 54.7211L72.1423 55.2187H69.3897H66.637L67.4922 54.1852C69.2873 52.0154 70.0993 49.6171 69.9675 46.8734C69.8467 44.3591 68.979 42.229 67.3274 40.392L66.6154 39.6H69.8451H73.075L73.078 39.9445ZM14.3244 42.5476C13.8642 43.0591 13.7951 43.3888 14.0303 43.952C14.2768 44.5416 14.8736 44.8075 15.9439 44.8039C16.8202 44.8012 17.3534 44.541 17.6192 43.9866C17.8681 43.4676 17.754 42.9303 17.3067 42.5137C17.0323 42.2579 16.7671 42.2031 15.8041 42.2031C14.7854 42.2031 14.5947 42.2475 14.3244 42.5476ZM20.8632 42.5055C20.1943 43.1744 20.3427 44.1916 21.1702 44.6104C21.68 44.8683 22.8936 44.8562 23.5386 44.5867C24.3459 44.2493 24.5168 43.2333 23.8814 42.5476C23.6027 42.2469 23.41 42.2031 22.364 42.2031C21.3749 42.2031 21.1128 42.2559 20.8632 42.5055ZM27.3603 42.579C26.8444 43.0948 26.8527 43.8636 27.3796 44.3585C27.7236 44.6818 27.9198 44.7297 28.8984 44.7297C29.877 44.7297 30.0732 44.6818 30.4173 44.3585C30.9442 43.8636 30.9524 43.0948 30.4366 42.579C30.1037 42.246 29.9283 42.2031 28.8984 42.2031C27.8685 42.2031 27.6932 42.246 27.3603 42.579ZM9.06476 47.7963C8.58593 48.3061 8.57568 49.1282 9.0424 49.5948C9.33793 49.8903 9.54618 49.9359 10.6 49.9359C11.6538 49.9359 11.862 49.8903 12.1576 49.5948C12.6243 49.1282 12.614 48.3061 12.1352 47.7963C11.8077 47.4478 11.6552 47.4094 10.6 47.4094C9.5448 47.4094 9.39229 47.4478 9.06476 47.7963ZM16.9717 47.7539C16.3143 48.3453 16.421 49.3881 17.179 49.7801C17.7214 50.0604 19.1068 50.0811 19.6298 49.8167C20.4712 49.3908 20.6076 48.3699 19.9098 47.7199C19.6387 47.4671 19.3701 47.4094 18.4656 47.4094C17.5289 47.4094 17.2945 47.4634 16.9717 47.7539ZM24.7572 47.7853C24.0497 48.4926 24.4027 49.7052 25.3879 49.9525C26.1454 50.1427 27.4221 49.933 27.8278 49.5521C28.3407 49.07 28.3433 48.295 27.8334 47.7853C27.5005 47.4522 27.3252 47.4094 26.2953 47.4094C25.2654 47.4094 25.0901 47.4522 24.7572 47.7853ZM32.5665 47.7853C32.0566 48.295 32.0592 49.07 32.5722 49.5521C32.9778 49.933 34.2546 50.1427 35.0121 49.9525C35.9973 49.7052 36.3503 48.4926 35.6428 47.7853C35.3099 47.4522 35.1346 47.4094 34.1047 47.4094C33.0748 47.4094 32.8994 47.4522 32.5665 47.7853ZM37.9983 55.4428C38.7421 55.8274 38.8656 56.8264 38.2459 57.4459L37.8702 57.8219H21.7016H5.53293L5.15716 57.4459C4.52766 56.8166 4.67849 55.8286 5.4703 55.3956C5.68621 55.2774 10.4619 55.2267 21.6709 55.2233C35.3275 55.2194 37.6262 55.2503 37.9983 55.4428ZM72.0059 58.0898C72.0123 58.7357 71.5226 67.2879 71.4534 67.7367L71.3767 68.2344H59.6H47.8233L47.7466 67.7367C47.6774 67.2879 47.1877 58.7357 47.1941 58.0898C47.1967 57.8369 47.8907 57.8219 59.6 57.8219C71.3093 57.8219 72.0033 57.8369 72.0059 58.0898ZM24.6875 63.0281C30.0545 64.4598 34.6342 65.6312 34.8646 65.6312C35.4977 65.6312 35.9737 64.9996 37.1672 62.5758L38.2391 60.399L38.775 60.4833C39.0835 60.532 39.4572 60.736 39.6555 60.9643C39.9867 61.3456 40 61.4727 40 64.2692C40 67.2943 39.8884 67.9151 39.304 68.1393C39.1678 68.1915 31.2238 68.2322 21.6507 68.2295C3.22411 68.2244 3.97366 68.254 3.5812 67.5171C3.32624 67.0383 3.34186 61.7034 3.59973 61.1937C3.97228 60.4573 4.19416 60.4296 9.74034 60.4273L14.9293 60.425L24.6875 63.0281ZM34.6824 61.5734C34.3697 62.2051 34.0156 62.7219 33.895 62.7219C33.6424 62.7219 25.5618 60.579 25.4658 60.4864C25.4308 60.4527 27.618 60.425 30.3263 60.425H35.2507L34.6824 61.5734ZM56.3481 63.2678C55.62 63.6628 55.5285 64.7082 56.1717 65.2867C56.4945 65.5772 56.7289 65.6312 57.6656 65.6312C58.5701 65.6312 58.8387 65.5735 59.1098 65.3207C59.8076 64.6707 59.6712 63.6498 58.8298 63.224C58.3151 62.9637 56.8613 62.9892 56.3481 63.2678ZM62.9687 63.2263C62.159 63.6359 62.02 64.6935 62.6933 65.3207C62.9995 65.6061 63.2269 65.6312 65.4974 65.6312C67.866 65.6312 67.9813 65.617 68.2787 65.2867C68.7197 64.7969 68.7979 64.4816 68.6112 63.9466C68.3414 63.1724 67.8448 63.0278 65.4647 63.0304C64.0692 63.0318 63.2215 63.0984 62.9687 63.2263Z" fill="#CE3246"/>
</svg>
